<svg width="142" height="104" viewBox="0 0 142 104" fill="none" xmlns="http://www.w3.org/2000/svg">
<g style="mix-blend-mode:exclusion">
<path d="M70.68 103.84C63.9387 103.84 57.7093 103.413 51.992 102.56C46.2747 101.707 40.984 100.469 36.12 98.848C31.3413 97.2267 27.032 95.264 23.192 92.96C19.4373 90.656 16.1093 88.0533 13.208 85.152C10.3067 82.2507 7.87467 79.0933 5.912 75.68C4.03467 72.1813 2.62667 68.4693 1.688 64.544C0.749333 60.6187 0.28 56.48 0.28 52.128C0.28 45.0453 1.432 38.688 3.736 33.056C6.04 27.424 9.28267 22.56 13.464 18.464C17.7307 14.368 22.7653 10.9547 28.568 8.224C34.456 5.49333 40.9413 3.488 48.024 2.20799C55.1067 0.842662 62.6587 0.159996 70.68 0.159996C84.8453 0.159996 96.8773 1.86666 106.776 5.28C116.675 8.69333 124.483 13.6 130.2 20C136.003 26.4 139.629 34.1653 141.08 43.296L86.68 52.128C86.68 50.1653 86.2533 48.5013 85.4 47.136C84.5467 45.6853 83.3947 44.5333 81.944 43.68C80.4933 42.8267 78.7867 42.1867 76.824 41.76C74.9467 41.3333 72.8987 41.12 70.68 41.12C67.608 41.12 64.8773 41.5467 62.488 42.4C60.0987 43.168 58.1787 44.3627 56.728 45.984C55.3627 47.52 54.68 49.4827 54.68 51.872C54.68 53.3227 54.936 54.6453 55.448 55.84C55.96 57.0347 56.6853 58.1013 57.624 59.04C58.5627 59.8933 59.672 60.6187 60.952 61.216C62.3173 61.728 63.8107 62.1547 65.432 62.496C67.0533 62.752 68.8027 62.88 70.68 62.88C75.2027 62.88 79 61.984 82.072 60.192C85.144 58.3147 86.68 55.6267 86.68 52.128L141.08 57.632C140.141 63.9467 138.051 69.8773 134.808 75.424C131.651 80.9707 127.213 85.8773 121.496 90.144C115.864 94.4107 108.824 97.7387 100.376 100.128C92.0133 102.603 82.1147 103.84 70.68 103.84Z" fill="#DF4747"/>
</g>
</svg>
