<svg width="32" height="28" viewBox="0 0 32 28" fill="none" xmlns="http://www.w3.org/2000/svg">
<path d="M21.874 2.42197C22.3124 2.72061 22.6142 3.18116 22.7131 3.70233C22.8119 4.22349 22.6997 4.76257 22.401 5.20097C22.1024 5.63938 21.6418 5.94119 21.1207 6.04002C20.5995 6.13885 20.0604 6.02661 19.622 5.72797C17.7756 4.47275 15.5622 3.87155 13.3344 4.02016C11.1067 4.16877 8.99271 5.05864 7.32935 6.54801C5.66599 8.03737 4.5489 10.0406 4.15604 12.2384C3.76318 14.4363 4.11715 16.7024 5.16157 18.6758C6.20598 20.6491 7.88076 22.2162 9.91908 23.1274C11.9574 24.0385 14.242 24.2413 16.409 23.7035C18.5759 23.1656 20.5006 21.9181 21.8763 20.1595C23.252 18.401 23.9996 16.2327 24 14C24 13.4695 24.2107 12.9608 24.5858 12.5858C24.9609 12.2107 25.4696 12 26 12C26.5305 12 27.0392 12.2107 27.4142 12.5858C27.7893 12.9608 28 13.4695 28 14C27.9995 17.126 26.9529 20.1618 25.0268 22.624C23.1007 25.0861 20.406 26.8327 17.3721 27.5856C14.3381 28.3386 11.1395 28.0545 8.28574 26.7785C5.432 25.5026 3.08738 23.3083 1.62543 20.5453C0.163479 17.7822 -0.331684 14.6094 0.218833 11.5323C0.769349 8.45515 2.33387 5.6508 4.66313 3.56601C6.99238 1.48123 9.95236 0.235975 13.0715 0.0286423C16.1906 -0.17869 19.2893 0.663832 21.874 2.42197Z" fill="white"/>
<path d="M21.078 19.012C20.8567 19.1535 20.6097 19.2501 20.3511 19.2962C20.0925 19.3424 19.8274 19.3371 19.5708 19.2807C19.3142 19.2243 19.0713 19.118 18.8558 18.9677C18.6403 18.8175 18.4566 18.6262 18.315 18.405C18.1735 18.1837 18.0769 17.9367 18.0307 17.6781C17.9846 17.4195 17.9899 17.1543 18.0463 16.8978C18.1026 16.6412 18.209 16.3982 18.3593 16.1828C18.5095 15.9673 18.7007 15.7835 18.922 15.642L25.886 11.188C26.3328 10.9115 26.8704 10.8219 27.3827 10.9386C27.8949 11.0553 28.3407 11.3688 28.6237 11.8115C28.9066 12.2542 29.004 12.7905 28.8948 13.3044C28.7856 13.8183 28.4786 14.2686 28.04 14.558L21.078 19.012Z" fill="white"/>
<path d="M31.806 18.82C32.0102 19.3023 32.017 19.8454 31.8251 20.3327C31.6331 20.82 31.2576 21.2125 30.7794 21.426C30.3011 21.6394 29.7582 21.6568 29.2673 21.4743C28.7764 21.2918 28.3767 20.924 28.154 20.45L25.138 13.69C25.025 13.4493 24.961 13.1885 24.95 12.9228C24.9389 12.6572 24.9809 12.3919 25.0736 12.1427C25.1662 11.8935 25.3077 11.6652 25.4896 11.4713C25.6715 11.2774 25.8903 11.1216 26.1331 11.0133C26.3759 10.9049 26.6379 10.846 26.9037 10.8401C27.1696 10.8342 27.4339 10.8813 27.6813 10.9788C27.9287 11.0763 28.1542 11.2221 28.3446 11.4077C28.5349 11.5934 28.6864 11.8151 28.79 12.06L31.806 18.82Z" fill="white"/>
</svg>
